# xmcd CD database file
#
# Track frame offsets:
#	150
#	18837
#	34170
#	52395
#	63930
#	81062
#	99160
#	114135
#	128857
#	152337
#	168110
#	183917
#	197455
#	215917
#	233682
#	245352
#	262392
#	279307
#
# Disc length: 3898 seconds
#
# Revision: 0
# Processed by: cddbd v1.5.1PL0 Copyright (c) Steve Scherf et al.
# Submitted via: CDex 1.51
#
DISCID=ea0f3812
DTITLE=Jim Brickman - Ballads Vol. II
DYEAR=2004
DGENRE=New Age
TTITLE0=You Feat. Jane Karkowski
TTITLE1='Til I See You Again fet. Mark Schultz
TTITLE2=Change Of My Heart feat. Olivia Newton John
TTITLE3=Part Of My Heart
TTITLE4=Destiny feat. Jordan Hill and Billy Porter
TTITLE5=Love Of My Life feat. Michael W. Smith
TTITLE6=Rendezvous feat. Herb Alpert
TTITLE7=The Love I Found In You feat. Dave Koz
TTITLE8=Starbright (Lullaby Medley)
TTITLE9=Simple Things feat. Rebecca Lynn-Howard
TTITLE10=Night Rain
TTITLE11=Gate 41
TTITLE12=Beautiful (as you) feat. All-4-One
TTITLE13=A Mother's Day
TTITLE14=Above the Clouds
TTITLE15=One Dreams feat. Sharon Cuneta
TTITLE16=My Love Is Here feat. Roch Voisine
TTITLE17=Night Prayer
EXTD=YEAR: 2004
EXTT0=
EXTT1=
EXTT2=
EXTT3=
EXTT4=
EXTT5=
EXTT6=
EXTT7=
EXTT8=
EXTT9=
EXTT10=
EXTT11=
EXTT12=
EXTT13=
EXTT14=
EXTT15=
EXTT16=
EXTT17=
PLAYORDER=
